<mxfile host="app.diagrams.net" modified="2024-02-22T13:26:14.114Z" agent="Mozilla/5.0 (Macintosh; Intel Mac OS X 10_15_7) AppleWebKit/537.36 (KHTML, like Gecko) Chrome/121.0.0.0 Safari/537.36" etag="GTvt8Z7ec-cZjIZdTYc-" version="23.1.4" type="device">
  <diagram name="PÃ¡gina-1" id="dSKs47z765vlk5pUpQ-g">
    <mxGraphModel dx="1136" dy="670" grid="1" gridSize="10" guides="1" tooltips="1" connect="1" arrows="1" fold="1" page="1" pageScale="1" pageWidth="827" pageHeight="1169" math="0" shadow="0">
      <root>
        <mxCell id="0" />
        <mxCell id="1" parent="0" />
        <mxCell id="1UiqQBD4CAy3ZStUgdJ9-21" value="AWS" style="rounded=1;whiteSpace=wrap;html=1;fillColor=none;glass=0;shadow=0;strokeWidth=2;labelPosition=right;verticalLabelPosition=top;align=left;verticalAlign=bottom;spacingLeft=-100;" vertex="1" parent="1">
          <mxGeometry x="90" y="320" width="590" height="380" as="geometry" />
        </mxCell>
        <mxCell id="1UiqQBD4CAy3ZStUgdJ9-19" value="Adds new games&lt;br&gt;Assign user to new games" style="rounded=1;whiteSpace=wrap;html=1;dashed=1;labelPosition=right;verticalLabelPosition=bottom;align=left;verticalAlign=top;fillColor=none;spacingLeft=-500;spacingRight=0;textDirection=ltr;" vertex="1" parent="1">
          <mxGeometry x="110" y="500" width="530" height="150" as="geometry" />
        </mxCell>
        <mxCell id="1UiqQBD4CAy3ZStUgdJ9-1" value="TelegramHandler" style="sketch=0;points=[[0,0,0],[0.25,0,0],[0.5,0,0],[0.75,0,0],[1,0,0],[0,1,0],[0.25,1,0],[0.5,1,0],[0.75,1,0],[1,1,0],[0,0.25,0],[0,0.5,0],[0,0.75,0],[1,0.25,0],[1,0.5,0],[1,0.75,0]];outlineConnect=0;fontColor=#232F3E;fillColor=#ED7100;strokeColor=#ffffff;dashed=0;verticalLabelPosition=top;verticalAlign=bottom;align=center;html=1;fontSize=12;fontStyle=0;aspect=fixed;shape=mxgraph.aws4.resourceIcon;resIcon=mxgraph.aws4.lambda;labelPosition=center;" vertex="1" parent="1">
          <mxGeometry x="550" y="360" width="78" height="78" as="geometry" />
        </mxCell>
        <mxCell id="1UiqQBD4CAy3ZStUgdJ9-6" style="edgeStyle=orthogonalEdgeStyle;rounded=0;orthogonalLoop=1;jettySize=auto;html=1;" edge="1" parent="1" source="1UiqQBD4CAy3ZStUgdJ9-2" target="1UiqQBD4CAy3ZStUgdJ9-3">
          <mxGeometry relative="1" as="geometry" />
        </mxCell>
        <mxCell id="1UiqQBD4CAy3ZStUgdJ9-7" value="Writes on" style="edgeLabel;html=1;align=center;verticalAlign=middle;resizable=0;points=[];" vertex="1" connectable="0" parent="1UiqQBD4CAy3ZStUgdJ9-6">
          <mxGeometry x="-0.168" y="-1" relative="1" as="geometry">
            <mxPoint as="offset" />
          </mxGeometry>
        </mxCell>
        <mxCell id="1UiqQBD4CAy3ZStUgdJ9-2" value="User" style="html=1;verticalLabelPosition=bottom;align=center;labelBackgroundColor=#ffffff;verticalAlign=top;strokeWidth=2;strokeColor=#0080F0;shadow=0;dashed=0;shape=mxgraph.ios7.icons.user;aspect=fixed;" vertex="1" parent="1">
          <mxGeometry x="340" y="190" width="85" height="85" as="geometry" />
        </mxCell>
        <mxCell id="1UiqQBD4CAy3ZStUgdJ9-3" value="Telegram" style="shape=image;html=1;verticalAlign=top;verticalLabelPosition=bottom;labelBackgroundColor=#ffffff;imageAspect=0;aspect=fixed;image=https://cdn1.iconfinder.com/data/icons/unicons-line-vol-6/24/telegram-128.png;spacingTop=-10;" vertex="1" parent="1">
          <mxGeometry x="110" y="349" width="100" height="100" as="geometry" />
        </mxCell>
        <mxCell id="1UiqQBD4CAy3ZStUgdJ9-4" value="DynamoDb" style="sketch=0;points=[[0,0,0],[0.25,0,0],[0.5,0,0],[0.75,0,0],[1,0,0],[0,1,0],[0.25,1,0],[0.5,1,0],[0.75,1,0],[1,1,0],[0,0.25,0],[0,0.5,0],[0,0.75,0],[1,0.25,0],[1,0.5,0],[1,0.75,0]];outlineConnect=0;fontColor=#232F3E;fillColor=#C925D1;strokeColor=#ffffff;dashed=0;verticalLabelPosition=bottom;verticalAlign=top;align=center;html=1;fontSize=12;fontStyle=0;aspect=fixed;shape=mxgraph.aws4.resourceIcon;resIcon=mxgraph.aws4.dynamodb;" vertex="1" parent="1">
          <mxGeometry x="550" y="520" width="78" height="78" as="geometry" />
        </mxCell>
        <mxCell id="1UiqQBD4CAy3ZStUgdJ9-5" value="CRON Scheduler" style="shape=image;html=1;verticalAlign=top;verticalLabelPosition=bottom;labelBackgroundColor=#ffffff;imageAspect=0;aspect=fixed;image=https://cdn3.iconfinder.com/data/icons/UltimateGnome/128x128/status/gnome-fs-loading-icon.png" vertex="1" parent="1">
          <mxGeometry x="120" y="512.75" width="92.5" height="92.5" as="geometry" />
        </mxCell>
        <mxCell id="1UiqQBD4CAy3ZStUgdJ9-8" style="edgeStyle=orthogonalEdgeStyle;rounded=0;orthogonalLoop=1;jettySize=auto;html=1;entryX=0;entryY=0.5;entryDx=0;entryDy=0;entryPerimeter=0;" edge="1" parent="1" source="1UiqQBD4CAy3ZStUgdJ9-3" target="1UiqQBD4CAy3ZStUgdJ9-10">
          <mxGeometry relative="1" as="geometry" />
        </mxCell>
        <mxCell id="1UiqQBD4CAy3ZStUgdJ9-9" value="from Webhook" style="edgeLabel;html=1;align=center;verticalAlign=middle;resizable=0;points=[];" vertex="1" connectable="0" parent="1UiqQBD4CAy3ZStUgdJ9-8">
          <mxGeometry x="-0.2593" y="-1" relative="1" as="geometry">
            <mxPoint x="10" y="-1" as="offset" />
          </mxGeometry>
        </mxCell>
        <mxCell id="1UiqQBD4CAy3ZStUgdJ9-10" value="API Gateway" style="sketch=0;points=[[0,0,0],[0.25,0,0],[0.5,0,0],[0.75,0,0],[1,0,0],[0,1,0],[0.25,1,0],[0.5,1,0],[0.75,1,0],[1,1,0],[0,0.25,0],[0,0.5,0],[0,0.75,0],[1,0.25,0],[1,0.5,0],[1,0.75,0]];outlineConnect=0;fontColor=#232F3E;fillColor=#8C4FFF;strokeColor=#ffffff;dashed=0;verticalLabelPosition=bottom;verticalAlign=top;align=center;html=1;fontSize=12;fontStyle=0;aspect=fixed;shape=mxgraph.aws4.resourceIcon;resIcon=mxgraph.aws4.api_gateway;" vertex="1" parent="1">
          <mxGeometry x="343.5" y="360" width="78" height="78" as="geometry" />
        </mxCell>
        <mxCell id="1UiqQBD4CAy3ZStUgdJ9-11" style="edgeStyle=orthogonalEdgeStyle;rounded=0;orthogonalLoop=1;jettySize=auto;html=1;entryX=0;entryY=0.5;entryDx=0;entryDy=0;entryPerimeter=0;" edge="1" parent="1" source="1UiqQBD4CAy3ZStUgdJ9-10" target="1UiqQBD4CAy3ZStUgdJ9-1">
          <mxGeometry relative="1" as="geometry" />
        </mxCell>
        <mxCell id="1UiqQBD4CAy3ZStUgdJ9-12" value="calls" style="edgeLabel;html=1;align=center;verticalAlign=middle;resizable=0;points=[];" vertex="1" connectable="0" parent="1UiqQBD4CAy3ZStUgdJ9-11">
          <mxGeometry x="-0.1748" y="-1" relative="1" as="geometry">
            <mxPoint as="offset" />
          </mxGeometry>
        </mxCell>
        <mxCell id="1UiqQBD4CAy3ZStUgdJ9-14" style="edgeStyle=orthogonalEdgeStyle;rounded=0;orthogonalLoop=1;jettySize=auto;html=1;entryX=0.5;entryY=0;entryDx=0;entryDy=0;entryPerimeter=0;" edge="1" parent="1" source="1UiqQBD4CAy3ZStUgdJ9-1" target="1UiqQBD4CAy3ZStUgdJ9-4">
          <mxGeometry relative="1" as="geometry" />
        </mxCell>
        <mxCell id="1UiqQBD4CAy3ZStUgdJ9-16" value="WebScrapper" style="sketch=0;points=[[0,0,0],[0.25,0,0],[0.5,0,0],[0.75,0,0],[1,0,0],[0,1,0],[0.25,1,0],[0.5,1,0],[0.75,1,0],[1,1,0],[0,0.25,0],[0,0.5,0],[0,0.75,0],[1,0.25,0],[1,0.5,0],[1,0.75,0]];outlineConnect=0;fontColor=#232F3E;fillColor=#ED7100;strokeColor=#ffffff;dashed=0;verticalLabelPosition=bottom;verticalAlign=top;align=center;html=1;fontSize=12;fontStyle=0;aspect=fixed;shape=mxgraph.aws4.resourceIcon;resIcon=mxgraph.aws4.lambda;" vertex="1" parent="1">
          <mxGeometry x="343.5" y="520" width="78" height="78" as="geometry" />
        </mxCell>
        <mxCell id="1UiqQBD4CAy3ZStUgdJ9-17" style="edgeStyle=orthogonalEdgeStyle;rounded=0;orthogonalLoop=1;jettySize=auto;html=1;entryX=0;entryY=0.5;entryDx=0;entryDy=0;entryPerimeter=0;" edge="1" parent="1" source="1UiqQBD4CAy3ZStUgdJ9-5" target="1UiqQBD4CAy3ZStUgdJ9-16">
          <mxGeometry relative="1" as="geometry" />
        </mxCell>
        <mxCell id="1UiqQBD4CAy3ZStUgdJ9-18" style="edgeStyle=orthogonalEdgeStyle;rounded=0;orthogonalLoop=1;jettySize=auto;html=1;entryX=0;entryY=0.5;entryDx=0;entryDy=0;entryPerimeter=0;" edge="1" parent="1" source="1UiqQBD4CAy3ZStUgdJ9-16" target="1UiqQBD4CAy3ZStUgdJ9-4">
          <mxGeometry relative="1" as="geometry" />
        </mxCell>
      </root>
    </mxGraphModel>
  </diagram>
</mxfile>
